<?xml version="1.0" encoding="UTF-8" standalone="no"?><!DOCTYPE svg PUBLIC "-//W3C//DTD SVG 1.1//EN" "http://www.w3.org/Graphics/SVG/1.1/DTD/svg11.dtd"><svg width="100%" height="100%" viewBox="0 0 1098 1263" version="1.1" xmlns="http://www.w3.org/2000/svg" xmlns:xlink="http://www.w3.org/1999/xlink" xml:space="preserve" xmlns:serif="http://www.serif.com/" style="fill-rule:evenodd;clip-rule:evenodd;"><g id="Layer-1" serif:id="Layer 1"><g id="_5200741" serif:id="5200741"><path id="path4916" d="M330.103,504.21l225.447,133.929l-0,258.928l-229.911,-131.696l4.464,-261.161Z" style="fill:#0079c0;fill-rule:nonzero;stroke:#0079c0;stroke-width:3.12px;"/><path id="path4918" d="M330.103,504.21l225.447,-131.696l227.678,131.696l-227.678,133.929l-225.447,-133.929Z" style="fill:#00d4ff;fill-rule:nonzero;stroke:#00d4ff;stroke-width:3.12px;"/><path id="path4920" d="M555.55,638.139l227.678,-133.929l0,263.393l-227.678,129.464l-0,-258.928Z" style="fill:#0094fc;fill-rule:nonzero;stroke:#0094fc;stroke-width:3.13px;"/><path id="path4922" d="M6.442,318.942l542.411,-312.5l542.411,314.733l-156.25,91.517l-381.697,-220.982l-388.393,218.75l-158.482,-91.518Z" style="fill:#00d4ff;fill-rule:nonzero;stroke:#00d4ff;stroke-width:3.12px;"/><path id="path4924" d="M6.442,318.942l0,627.232l540.179,310.268l2.232,-183.035l-381.696,-220.982l-2.233,-441.965l-158.482,-91.518Z" style="fill:#0079c0;fill-rule:nonzero;stroke:#0079c0;stroke-width:3.12px;"/><path id="path4926" d="M548.853,1073.41l383.929,-220.982l158.482,91.517l-544.643,312.5l2.232,-183.035Z" style="fill:#0094fc;fill-rule:nonzero;stroke:#0094fc;stroke-width:3.12px;"/></g></g></svg>